<svg xmlns="http://www.w3.org/2000/svg" viewBox="0 0 800 500">
  <defs>
    <linearGradient id="bg" x1="0" y1="0" x2="1" y2="1">
      <stop offset="0" stop-color="#1A0F33"/><stop offset="1" stop-color="#45278F"/>
    </linearGradient>
    <radialGradient id="glow" cx="0.75" cy="0.7" r="0.7">
      <stop offset="0" stop-color="#8F6BF0" stop-opacity="0.4"/><stop offset="1" stop-color="#8F6BF0" stop-opacity="0"/>
    </radialGradient>
    <pattern id="dots" width="26" height="26" patternUnits="userSpaceOnUse">
      <circle cx="2" cy="2" r="1.4" fill="#C3AEF6" opacity="0.22"/>
    </pattern>
  </defs>
  <rect width="800" height="500" fill="url(#bg)"/>
  <rect width="800" height="500" fill="url(#dots)"/>
  <rect width="800" height="500" fill="url(#glow)"/>
  <rect x="150" y="90" width="230" height="320" rx="22" fill="#241454" stroke="#9D7BFF" stroke-width="3.5"/>
  <rect x="176" y="118" width="178" height="58" rx="10" fill="#120A2E" stroke="#B69BFF" stroke-width="2"/>
  <text x="338" y="158" font-family="monospace" font-size="30" fill="#D9C8FF" text-anchor="end">98,500</text>
  <g fill="#3A2380" stroke="#9D7BFF" stroke-width="2">
    <rect x="176" y="200" width="50" height="42" rx="9"/><rect x="240" y="200" width="50" height="42" rx="9"/><rect x="304" y="200" width="50" height="42" rx="9"/>
    <rect x="176" y="256" width="50" height="42" rx="9"/><rect x="240" y="256" width="50" height="42" rx="9"/><rect x="304" y="256" width="50" height="42" rx="9"/>
    <rect x="176" y="312" width="50" height="42" rx="9"/><rect x="240" y="312" width="114" height="42" rx="9" fill="#7C4DDF"/>
  </g>
  <g stroke="#C7B2FF" stroke-width="3" fill="#2B1A63">
    <circle cx="565" cy="330" r="46"/><circle cx="620" cy="300" r="46"/><circle cx="675" cy="270" r="46"/>
  </g>
  <text x="675" y="281" font-family="monospace" font-size="30" fill="#E4D8FF" text-anchor="middle">Rs</text>
  <circle cx="560" cy="120" r="6" fill="#C7B2FF" opacity="0.8"/>
  <circle cx="640" cy="90" r="4.5" fill="#9D7BFF" opacity="0.7"/>
</svg>
