<svg xmlns="http://www.w3.org/2000/svg" viewBox="0 0 800 500">
  <defs>
    <linearGradient id="bg" x1="0" y1="0" x2="1" y2="1">
      <stop offset="0" stop-color="#071426"/><stop offset="1" stop-color="#0B3A5C"/>
    </linearGradient>
    <radialGradient id="glow" cx="0.8" cy="0.2" r="0.7">
      <stop offset="0" stop-color="#00F2FE" stop-opacity="0.35"/><stop offset="1" stop-color="#00F2FE" stop-opacity="0"/>
    </radialGradient>
    <pattern id="dots" width="26" height="26" patternUnits="userSpaceOnUse">
      <circle cx="2" cy="2" r="1.4" fill="#7FD8F5" opacity="0.25"/>
    </pattern>
    <linearGradient id="cap" x1="0" y1="0" x2="1" y2="0">
      <stop offset="0" stop-color="#EAF7FF"/><stop offset="0.5" stop-color="#EAF7FF"/>
      <stop offset="0.5" stop-color="#19C8E8"/><stop offset="1" stop-color="#0E86C9"/>
    </linearGradient>
  </defs>
  <rect width="800" height="500" fill="url(#bg)"/>
  <rect width="800" height="500" fill="url(#dots)"/>
  <rect width="800" height="500" fill="url(#glow)"/>
  <g transform="rotate(-24 400 250)">
    <rect x="270" y="205" width="260" height="90" rx="45" fill="url(#cap)" stroke="#BDEBFF" stroke-width="3" opacity="0.95"/>
    <line x1="400" y1="205" x2="400" y2="295" stroke="#0A3A55" stroke-width="3" opacity="0.5"/>
  </g>
  <g stroke="#35D2F2" stroke-width="10" stroke-linecap="round" opacity="0.9">
    <line x1="120" y1="392" x2="120" y2="330"/><line x1="160" y1="392" x2="160" y2="300"/>
    <line x1="200" y1="392" x2="200" y2="345"/><line x1="240" y1="392" x2="240" y2="272"/>
  </g>
  <line x1="100" y1="400" x2="270" y2="400" stroke="#7FD8F5" stroke-width="3" opacity="0.6"/>
  <g transform="translate(628,352)">
    <circle r="52" fill="#0E2C44" stroke="#35D2F2" stroke-width="3"/>
    <rect x="-9" y="-30" width="18" height="60" rx="5" fill="#5EE1FA"/>
    <rect x="-30" y="-9" width="60" height="18" rx="5" fill="#5EE1FA"/>
  </g>
  <circle cx="140" cy="110" r="7" fill="#5EE1FA" opacity="0.85"/>
  <circle cx="190" cy="82" r="4.5" fill="#9FEAFB" opacity="0.7"/>
  <circle cx="655" cy="120" r="5.5" fill="#9FEAFB" opacity="0.6"/>
</svg>
