<svg xmlns="http://www.w3.org/2000/svg" viewBox="0 0 800 500">
  <defs>
    <linearGradient id="bg" x1="0" y1="0" x2="1" y2="1">
      <stop offset="0" stop-color="#2A1030"/><stop offset="1" stop-color="#8A2E5C"/>
    </linearGradient>
    <radialGradient id="glow" cx="0.25" cy="0.25" r="0.7">
      <stop offset="0" stop-color="#FF8A65" stop-opacity="0.35"/><stop offset="1" stop-color="#FF8A65" stop-opacity="0"/>
    </radialGradient>
    <pattern id="dots" width="26" height="26" patternUnits="userSpaceOnUse">
      <circle cx="2" cy="2" r="1.4" fill="#FFC4A8" opacity="0.22"/>
    </pattern>
  </defs>
  <rect width="800" height="500" fill="url(#bg)"/>
  <rect width="800" height="500" fill="url(#dots)"/>
  <rect width="800" height="500" fill="url(#glow)"/>
  <g stroke="#FFD9C2" stroke-width="7" fill="none" stroke-linecap="round" stroke-linejoin="round">
    <path d="M215 165 H278 L318 330 H545 L585 205 H300"/>
  </g>
  <circle cx="352" cy="382" r="22" fill="#FFD9C2"/>
  <circle cx="512" cy="382" r="22" fill="#FFD9C2"/>
  <circle cx="392" cy="250" r="34" fill="#FF8A5C" stroke="#FFD9C2" stroke-width="3"/>
  <circle cx="462" cy="242" r="30" fill="#8FD98A" stroke="#EAFBE8" stroke-width="3"/>
  <circle cx="428" cy="200" r="26" fill="#F2C94C" stroke="#FFF3D0" stroke-width="3"/>
  <path d="M428 176 q10 -16 24 -14" stroke="#8FD98A" stroke-width="5" fill="none" stroke-linecap="round"/>
  <g stroke="#FFB08A" stroke-width="4" opacity="0.85">
    <line x1="640" y1="150" x2="700" y2="150"/><line x1="640" y1="176" x2="686" y2="176"/><line x1="640" y1="202" x2="672" y2="202"/>
  </g>
  <circle cx="140" cy="105" r="6" fill="#FFC4A8" opacity="0.8"/>
</svg>
